name rise34.3697peak60.0498fall86.3158.mot
datacolumns 19
datarows 18
range 20.70825500000000 20.73658600000000
endheader
time	ground_force1_vx	ground_force1_vy	ground_force1_vz	ground_force1_px	ground_force1_py	ground_force1_pz	ground_force2_vx	ground_force2_vy	ground_force2_vz	ground_force2_px	ground_force2_py	ground_force2_pz	ground_torque1_x	ground_torque1_y	ground_torque1_z	ground_torque2_x	ground_torque2_y	ground_torque2_z	
20.70825500000000	7.17189600000000	692.55624899999998	42.29968700000000	0.28233100000000	0.00000000000000	0.09209200000000	0.00000000000000	0.00000000000000	0.00000000000000	0.00000000000000	0.00000000000000	0.00000000000000	0.00000000000000	21.71668800000000	0.00000000000000	0.00000000000000	0.00000000000000	0.00000000000000	
20.70992600000000	6.85517600000000	693.02865999999995	42.29154500000000	0.28133300000000	0.00000000000000	0.09205900000000	0.00000000000000	0.00000000000000	0.00000000000000	0.00000000000000	0.00000000000000	0.00000000000000	0.00000000000000	21.72511100000000	0.00000000000000	0.00000000000000	0.00000000000000	0.00000000000000	
20.71158800000000	6.53006400000000	693.53912000000003	42.28802500000000	0.28034500000000	0.00000000000000	0.09202500000000	0.00000000000000	0.00000000000000	0.00000000000000	0.00000000000000	0.00000000000000	0.00000000000000	0.00000000000000	21.73936500000000	0.00000000000000	0.00000000000000	0.00000000000000	0.00000000000000	
20.71325600000000	6.19624000000000	694.08651599999996	42.28882800000000	0.27936600000000	0.00000000000000	0.09199100000000	0.00000000000000	0.00000000000000	0.00000000000000	0.00000000000000	0.00000000000000	0.00000000000000	0.00000000000000	21.75930300000000	0.00000000000000	0.00000000000000	0.00000000000000	0.00000000000000	
20.71491900000000	5.85340300000000	694.66980899999999	42.29366500000000	0.27839800000000	0.00000000000000	0.09195700000000	0.00000000000000	0.00000000000000	0.00000000000000	0.00000000000000	0.00000000000000	0.00000000000000	0.00000000000000	21.78477300000000	0.00000000000000	0.00000000000000	0.00000000000000	0.00000000000000	
20.71658800000000	5.50128500000000	695.28803000000005	42.30225600000000	0.27744000000000	0.00000000000000	0.09192200000000	0.00000000000000	0.00000000000000	0.00000000000000	0.00000000000000	0.00000000000000	0.00000000000000	0.00000000000000	21.81562500000000	0.00000000000000	0.00000000000000	0.00000000000000	0.00000000000000	
20.71825300000000	5.13964100000000	695.94029100000000	42.31433500000000	0.27649100000000	0.00000000000000	0.09188700000000	0.00000000000000	0.00000000000000	0.00000000000000	0.00000000000000	0.00000000000000	0.00000000000000	0.00000000000000	21.85170500000000	0.00000000000000	0.00000000000000	0.00000000000000	0.00000000000000	
20.71991800000000	4.76825600000000	696.62578099999996	42.32964800000000	0.27555300000000	0.00000000000000	0.09185100000000	0.00000000000000	0.00000000000000	0.00000000000000	0.00000000000000	0.00000000000000	0.00000000000000	0.00000000000000	21.89286100000000	0.00000000000000	0.00000000000000	0.00000000000000	0.00000000000000	
20.72158800000000	4.38694300000000	697.34377400000005	42.34795700000000	0.27462500000000	0.00000000000000	0.09181600000000	0.00000000000000	0.00000000000000	0.00000000000000	0.00000000000000	0.00000000000000	0.00000000000000	0.00000000000000	21.93894000000000	0.00000000000000	0.00000000000000	0.00000000000000	0.00000000000000	
20.72325200000000	3.99554600000000	698.09362599999997	42.36903500000000	0.27370700000000	0.00000000000000	0.09177900000000	0.00000000000000	0.00000000000000	0.00000000000000	0.00000000000000	0.00000000000000	0.00000000000000	0.00000000000000	21.98978800000000	0.00000000000000	0.00000000000000	0.00000000000000	0.00000000000000	
20.72492000000000	3.59393800000000	698.87477999999999	42.39267400000000	0.27279800000000	0.00000000000000	0.09174200000000	0.00000000000000	0.00000000000000	0.00000000000000	0.00000000000000	0.00000000000000	0.00000000000000	0.00000000000000	22.04525100000000	0.00000000000000	0.00000000000000	0.00000000000000	0.00000000000000	
20.72659100000000	3.18202000000000	699.68676300000004	42.41868000000000	0.27190000000000	0.00000000000000	0.09170500000000	0.00000000000000	0.00000000000000	0.00000000000000	0.00000000000000	0.00000000000000	0.00000000000000	0.00000000000000	22.10517600000000	0.00000000000000	0.00000000000000	0.00000000000000	0.00000000000000	
20.72825400000000	2.75972700000000	700.52918699999998	42.44687700000000	0.27101100000000	0.00000000000000	0.09166700000000	0.00000000000000	0.00000000000000	0.00000000000000	0.00000000000000	0.00000000000000	0.00000000000000	0.00000000000000	22.16941000000000	0.00000000000000	0.00000000000000	0.00000000000000	0.00000000000000	
20.72992500000000	2.32702300000000	701.40174900000000	42.47710600000000	0.27013100000000	0.00000000000000	0.09162800000000	0.00000000000000	0.00000000000000	0.00000000000000	0.00000000000000	0.00000000000000	0.00000000000000	0.00000000000000	22.23780200000000	0.00000000000000	0.00000000000000	0.00000000000000	0.00000000000000	
20.73160000000000	1.88390300000000	702.30422699999997	42.50922700000000	0.26926000000000	0.00000000000000	0.09159000000000	0.00000000000000	0.00000000000000	0.00000000000000	0.00000000000000	0.00000000000000	0.00000000000000	0.00000000000000	22.31020100000000	0.00000000000000	0.00000000000000	0.00000000000000	0.00000000000000	
20.73325500000000	1.43039300000000	703.23647800000003	42.54311900000000	0.26839800000000	0.00000000000000	0.09155000000000	0.00000000000000	0.00000000000000	0.00000000000000	0.00000000000000	0.00000000000000	0.00000000000000	0.00000000000000	22.38645500000000	0.00000000000000	0.00000000000000	0.00000000000000	0.00000000000000	
20.73492000000000	0.96655000000000	704.19843600000002	42.57867700000000	0.26754500000000	0.00000000000000	0.09151100000000	0.00000000000000	0.00000000000000	0.00000000000000	0.00000000000000	0.00000000000000	0.00000000000000	0.00000000000000	22.46641700000000	0.00000000000000	0.00000000000000	0.00000000000000	0.00000000000000	
20.73658600000000	0.49246300000000	705.19010900000001	42.61582000000000	0.26670000000000	0.00000000000000	0.09147000000000	0.00000000000000	0.00000000000000	0.00000000000000	0.00000000000000	0.00000000000000	0.00000000000000	0.00000000000000	22.54993900000000	0.00000000000000	0.00000000000000	0.00000000000000	0.00000000000000	
